<svg viewBox="0 0 93 67" fill="none" xmlns="http://www.w3.org/2000/svg">
    <path
        d="M55.4862 27.6649C55.4135 27.681 55.3916 27.7748 55.4502 27.8208C55.4882 27.8507 55.4948 27.9058 55.4649 27.9439L53.9736 29.84C53.12 30.9253 51.5483 31.1131 50.463 30.2596L38.4641 20.8225C37.494 20.0595 37.3262 18.6547 38.0891 17.6846C38.4971 17.1658 38.6447 16.4943 38.558 15.84C38.0797 12.2287 39.0025 8.43525 41.4324 5.34576C41.8008 4.87734 42.1931 4.43878 42.6062 4.03044L42.6231 4.01375C43.1294 3.51498 43.6668 3.06149 44.2297 2.65396C49.1672 -0.921091 56.0621 -0.959265 61.0915 2.99633C66.0027 6.859 67.6321 13.348 65.5542 18.9034C65.5428 18.9336 65.5314 18.9638 65.5199 18.994C65.299 19.5721 65.0379 20.1399 64.7359 20.6933C64.3658 21.3714 63.9345 22.0279 63.4409 22.6554C61.3641 25.296 58.5281 26.9879 55.4862 27.6649Z"
        fill="url(#paint0_linear_449_4912)" />
    <path
        d="M38.6255 22.2216C37.2547 21.1435 35.2572 21.4538 34.2781 22.897L0.518725 72.6616C-0.301824 73.8712 -0.126991 75.4776 0.8883 76.4837C0.374455 77.5751 0.43754 78.6988 1.12588 79.2402C1.12767 79.2416 1.12947 79.243 1.13127 79.2444C1.31803 83.4627 4.13834 87.578 8.63917 89.3837C13.5643 91.3596 20.3138 90.5258 27.7572 84.5774C34.2801 79.3644 39.769 72.427 44.7553 65.421C46.4708 63.0106 48.1212 60.6011 49.7339 58.2467C52.8423 53.7086 55.8105 49.3753 58.834 45.6354C63.4277 39.9533 67.9529 35.9066 72.9409 34.7091C77.8354 33.5341 83.4698 35.0463 90.4592 41.2242C90.873 41.5899 91.5049 41.551 91.8707 41.1372C92.2365 40.7234 92.1975 40.0914 91.7837 39.7257C84.5256 33.3102 78.2426 31.3795 72.474 32.7644C66.7989 34.1268 61.9153 38.6428 57.2787 44.378C54.2076 48.1768 51.1589 52.6268 48.0191 57.2098C46.4168 59.5486 44.7907 61.9221 43.1259 64.2613C38.163 71.2343 32.8053 77.9829 26.5086 83.015C19.4549 88.652 13.457 89.1616 9.38385 87.5275C5.62091 86.0178 3.33848 82.6395 3.13618 79.2811C3.3765 79.1668 3.61555 79.017 3.84487 78.8342L4.0142 78.9674C5.2487 79.9383 7.0225 79.7956 8.08593 78.6398L48.8239 34.3638C50.0103 33.0743 49.8473 31.0476 48.47 29.9643L38.6255 22.2216Z"
        fill="url(#paint1_linear_449_4912)" />
    <defs>
        <linearGradient id="paint0_linear_449_4912" x1="105.133" y1="45.2163" x2="367.633"
            y2="45.2163" gradientUnits="userSpaceOnUse">
            <stop stop-color="#FC1943" />
            <stop offset="1" stop-color="#EF5D8C" />
        </linearGradient>
        <linearGradient id="paint1_linear_449_4912" x1="105.133" y1="45.2163" x2="367.633"
            y2="45.2163" gradientUnits="userSpaceOnUse">
            <stop stop-color="#FC1943" />
            <stop offset="1" stop-color="#EF5D8C" />
        </linearGradient>
        <linearGradient id="paint2_linear_449_4912" x1="105.133" y1="45.2163" x2="367.633"
            y2="45.2163" gradientUnits="userSpaceOnUse">
            <stop stop-color="#FC1943" />
            <stop offset="1" stop-color="#EF5D8C" />
        </linearGradient>
        <linearGradient id="paint3_linear_449_4912" x1="105.133" y1="45.2163" x2="367.633"
            y2="45.2163" gradientUnits="userSpaceOnUse">
            <stop stop-color="#FC1943" />
            <stop offset="1" stop-color="#EF5D8C" />
        </linearGradient>
        <linearGradient id="paint4_linear_449_4912" x1="105.133" y1="45.2163" x2="367.633"
            y2="45.2163" gradientUnits="userSpaceOnUse">
            <stop stop-color="#FC1943" />
            <stop offset="1" stop-color="#EF5D8C" />
        </linearGradient>
        <linearGradient id="paint5_linear_449_4912" x1="105.133" y1="45.2163" x2="367.633"
            y2="45.2163" gradientUnits="userSpaceOnUse">
            <stop stop-color="#FC1943" />
            <stop offset="1" stop-color="#EF5D8C" />
        </linearGradient>
        <linearGradient id="paint6_linear_449_4912" x1="105.133" y1="45.2163" x2="367.633"
            y2="45.2163" gradientUnits="userSpaceOnUse">
            <stop stop-color="#FC1943" />
            <stop offset="1" stop-color="#EF5D8C" />
        </linearGradient>
        <linearGradient id="paint7_linear_449_4912" x1="105.133" y1="45.2163" x2="367.633"
            y2="45.2163" gradientUnits="userSpaceOnUse">
            <stop stop-color="#FC1943" />
            <stop offset="1" stop-color="#EF5D8C" />
        </linearGradient>
    </defs>
</svg>
    