<svg width="1810" height="255" fill="none" xmlns="http://www.w3.org/2000/svg"><path opacity=".6" d="M1809.72 106.828c.23.16.28.472.12.697a.492.492 0 0 1-.69.119l.57-.816Zm-758.22 90.438-.18-.467.18.467ZM221.619 83.168a.5.5 0 1 1 .537-.844l-.537.844ZM1790.72 30.569c.23.145.3.454.16.688a.502.502 0 0 1-.69.163l.53-.85ZM932.632 146.04l-.172-.47.172.47ZM.502 57.847a.5.5 0 1 1 .482-.876l-.481.876ZM1041.27 192.86l-.17-.468.17.468Zm-19.07-8.221.18.468-.18-.468Zm-8.85-3.815.17.468-.17-.468Zm-8.4-3.62.18.468-.18-.468Zm-7.941-3.422.176.468-.176-.468Zm-7.485-3.226.175.469-.175-.469Zm-7.028-3.028.174.468-.174-.468Zm-6.573-2.833-.174-.469.174.469Zm-6.116-2.636-.174-.469.174.469Zm-5.66-2.439-.174-.469.174.469Zm-9.952-4.289-.173-.47.173.47Zm-8.128-3.503.173.469-.173-.469Zm-3.38-1.456.173.469-.173-.469Zm-2.923-1.261.172.47-.172-.47Zm-4.478-1.929-.172-.47.172.47Zm-1.555-.671.172.47-.172-.47Zm875.419-38.868c-19.02-13.482-51.26-24.03-95.14-29.893-43.87-5.861-99.31-7.034-164.66-1.807-130.71 10.454-301.03 46.501-497.67 121.789l-.36-.934c196.72-75.317 367.14-111.39 497.95-121.852 65.4-5.23 120.92-4.06 164.87 1.812 43.94 5.871 76.37 16.447 95.58 30.069l-.57.816Zm-757.47 90.089C658.074 348.429 346.571 162.639 221.619 83.168l.537-.844c124.912 79.446 436.04 264.988 829.164 114.475l.36.934ZM1790.19 31.42c-21.01-12.97-57.04-22.557-106.35-27.05-49.29-4.492-111.78-3.888-185.67 3.479-147.78 14.733-341.08 56.515-565.366 138.659l-.344-.939C1156.81 63.4 1350.2 21.596 1498.07 6.854c73.93-7.372 136.5-7.979 185.86-3.48 49.35 4.497 85.58 14.101 106.79 27.195l-.53.851ZM932.804 146.508C483.957 310.899 138.811 133.859.503 57.847l.481-.876c138.245 75.977 483.052 252.834 931.476 88.598l.344.939Zm874.716-45.419c-19.19-13.438-51.76-23.903-96.11-29.649-44.33-5.743-100.38-6.763-166.46-1.352-132.18 10.822-304.48 47.362-503.5 123.24l-.35-.935c199.09-75.906 371.49-112.471 503.77-123.301 66.13-5.415 122.25-4.398 166.67 1.357 44.4 5.752 77.17 16.245 96.55 29.821l-.57.819Zm-766.07 92.239C643.101 345.202 328.705 160.164 202.605 80.99l.531-.847c126.059 79.148 440.083 263.944 837.964 112.25l.35.935Zm764.51-98.5c-19.35-13.397-52.23-23.783-97.03-29.416-44.77-5.63-101.4-6.505-168.19-.918-133.57 11.173-307.76 48.185-509.05 124.626l-.36-.935c201.37-76.47 375.65-113.505 509.33-124.687 66.84-5.591 123.54-4.72 168.4.922 44.85 5.64 77.92 16.052 97.47 29.585l-.57.823Zm-774.27 94.292C628.797 342.119 311.637 157.8 184.439 78.91l.527-.85c127.153 78.863 443.945 262.946 846.364 110.125l.36.935Zm772.78-100.262c-19.5-13.356-52.68-23.668-97.9-29.193-45.2-5.524-102.38-6.258-169.84-.504-134.91 11.508-310.9 48.969-514.35 125.947l-.36-.936c203.53-77.006 379.61-114.49 514.63-126.008 67.51-5.758 124.76-5.026 170.04.508 45.27 5.532 78.65 15.868 98.35 29.36l-.57.826Zm-782.09 96.25c-407.22 154.071-727.015-29.562-855.259-108.18l.523-.853c128.197 78.59 447.627 261.993 854.376 108.097l.36.936Zm780.68-101.927c-19.65-13.318-53.11-23.558-98.73-28.981-45.61-5.422-103.32-6.025-171.41-.11-136.18 11.826-313.88 49.714-519.4 127.203l-.35-.936c205.59-77.516 383.38-115.428 519.67-127.264 68.14-5.918 125.91-5.318 171.6.113 45.68 5.43 79.33 15.694 99.18 29.147l-.56.828Zm-789.54 98.112c-411.328 155.091-733.629-27.89-862.868-106.251l.519-.856c129.19 78.332 451.128 261.089 861.999 106.171l.35.936Zm788.2-103.497c-19.79-13.282-53.52-23.454-99.53-28.78-45.99-5.325-104.19-5.802-172.88.262-137.39 12.13-316.72 50.423-524.18 128.395l-.36-.936c207.54-78 386.96-116.316 524.45-128.455 68.74-6.069 127.02-5.594 173.09-.26 46.06 5.333 79.98 15.528 99.97 28.943l-.56.83Zm-796.59 99.877C589.892 333.732 265.214 151.37 135.032 73.253l.514-.858c130.132 78.087 454.45 260.23 869.224 104.342l.36.936Zm795.33-104.97c-19.93-13.247-53.91-23.355-100.28-28.59-46.35-5.233-105.03-5.592-174.29.616-138.53 12.415-319.39 51.092-528.705 129.522l-.351-.936C1206.22 94.857 1387.17 56.157 1525.8 43.733c69.31-6.212 128.06-5.856 174.49-.614 46.42 5.241 80.59 15.371 100.72 28.752l-.55.832ZM997.185 174.251C578.26 331.225 251.335 149.447 120.26 71.561l.511-.86c131.023 77.855 457.59 259.418 876.063 102.614l.351.936ZM1799.26 67.904c-20.05-13.215-54.27-23.263-100.98-28.412-46.69-5.147-105.81-5.393-175.62.95-139.6 12.684-321.91 51.721-532.961 130.584l-.35-.937c211.121-78.89 393.521-117.95 533.221-130.644 69.86-6.347 129.04-6.103 175.82-.947 46.76 5.155 81.17 15.224 101.42 28.57l-.55.836ZM989.699 171.026c-422.404 157.836-751.447-23.391-883.363-101.06l.508-.861c131.862 77.637 460.55 258.652 882.505 100.984l.35.937Zm808.441-107.63c-20.17-13.184-54.61-23.175-101.64-28.242-47.02-5.067-106.55-5.208-176.86 1.26-140.62 12.939-324.28 52.315-536.97 131.583l-.349-.937C1195.08 87.766 1378.83 48.366 1519.55 35.42c70.35-6.474 129.96-6.336 177.05-1.26 47.08 5.073 81.72 15.084 102.09 28.4l-.55.837ZM982.67 167.998C557 326.643 225.967 145.933 93.262 68.47l.504-.864c132.651 77.432 463.33 257.934 888.555 99.454l.349.937Zm814.42-108.815c-20.28-13.157-54.93-23.094-102.26-28.086-47.32-4.99-107.24-5.034-178.02 1.554-141.56 13.174-326.5 52.867-540.713 132.515l-.348-.938C1190.04 84.554 1375.06 44.837 1516.72 31.654c70.82-6.592 130.82-6.552 178.21-1.553 47.38 4.998 82.23 14.955 102.71 28.242l-.55.839ZM976.097 165.165C547.372 324.567 214.48 144.342 81.035 67.069l.501-.865c133.388 77.24 465.93 257.262 894.213 98.023l.348.938ZM1796.12 55.26c-20.38-13.13-55.23-23.018-102.84-27.94-47.6-4.92-107.89-4.872-179.1 1.826-142.44 13.395-328.56 53.383-544.199 133.383l-.348-.938C1185.34 81.565 1371.55 41.554 1514.08 28.151c71.27-6.703 131.63-6.754 179.3-1.825 47.66 4.926 82.7 14.834 103.28 28.093l-.54.84ZM969.981 162.529C538.413 322.637 203.789 142.861 69.657 65.767l.499-.867c134.074 77.06 468.348 256.636 899.477 96.69l.348.938Zm825.239-110.9c-20.48-13.105-55.51-22.947-103.38-27.803-47.85-4.855-108.48-4.723-180.1 2.077-143.25 13.598-330.46 53.86-547.42 134.186l-.347-.937C1181 78.799 1368.3 38.515 1511.64 24.907c71.68-6.803 132.37-6.94 180.3-2.076 47.92 4.86 83.14 14.722 103.82 27.957l-.54.842Zm-830.9 108.46C530.121 320.849 193.895 141.49 59.128 64.561l.496-.869c134.709 76.896 470.587 256.057 904.349 95.46l.347.937Zm830.07-111.796c-20.57-13.084-55.76-22.884-103.87-27.68-48.09-4.795-109.02-4.584-181.02 2.309-144 13.785-332.22 54.298-550.384 134.925l-.347-.938C1177 76.256 1365.31 35.721 1509.4 21.926c72.05-6.897 133.05-7.11 181.22-2.308 48.15 4.801 83.54 14.62 104.3 27.83l-.53.845ZM959.116 157.847C522.498 319.206 184.799 140.23 49.447 63.452l.493-.87c135.293 76.745 472.646 255.525 908.829 94.327l.347.938Zm834.514-112.6c-20.65-13.062-55.99-22.823-104.31-27.565-48.31-4.74-109.53-4.459-181.87 2.52C1362.77 34.157 1173.64 74.9 954.368 155.8l-.346-.939C1173.36 73.936 1362.58 33.172 1507.36 19.206c72.38-6.983 133.67-7.267 182.05-2.52 48.37 4.747 83.91 14.527 104.75 27.717l-.53.845ZM954.368 155.802c-438.825 161.906-777.867-16.72-913.753-93.36l.491-.872c135.825 76.606 474.524 255.04 912.916 93.293l.346.939ZM1792.94 42.496c-20.71-13.045-56.2-22.772-104.71-27.464-48.51-4.69-109.98-4.345-182.63 2.71-145.29 14.112-335.26 55.061-555.525 136.209l-.345-.938c220.34-81.174 410.39-122.145 555.78-136.266 72.69-7.06 134.23-7.408 182.81-2.71 48.57 4.696 84.24 14.441 105.16 27.612l-.54.847ZM950.075 153.95C509.256 316.351 168.999 138.04 32.631 61.525l.49-.872c136.306 76.481 476.22 254.601 916.609 92.359l.345.938ZM1792.33 40.036c-20.78-13.028-56.38-22.724-105.08-27.372-48.67-4.646-110.37-4.243-183.3 2.881-145.84 14.25-336.55 55.384-557.71 136.753l-.346-.939C1167.12 69.965 1357.91 28.809 1503.86 14.55c72.97-7.13 134.73-7.535 183.49-2.881 48.74 4.652 84.53 14.366 105.51 27.52l-.53.847ZM946.24 152.298c-442.603 162.843-783.946-15.186-920.745-91.59l.488-.872c136.737 76.369 477.738 254.208 919.911 91.523l.346.939Zm845.55-114.43c-20.83-13.013-56.55-22.68-105.4-27.29-48.83-4.607-110.73-4.154-183.89 3.032-146.33 14.37-337.69 55.668-559.64 137.232l-.345-.939C1164.53 68.313 1355.97 26.995 1502.4 12.614c73.21-7.19 135.18-7.646 184.09-3.031 48.89 4.613 84.79 14.299 105.83 27.438l-.53.848ZM942.86 150.843C498.687 314.074 156.387 136.294 19.209 59.989l.486-.874c137.116 76.271 479.075 253.863 922.82 90.788l.345.939Zm848.47-114.848c-20.89-13-56.7-22.646-105.68-27.221-48.96-4.574-111.03-4.077-184.41 3.162-146.75 14.476-338.68 55.914-561.304 137.647l-.344-.939C1162.29 66.885 1354.3 25.425 1501.14 10.939c73.42-7.243 135.56-7.743 184.61-3.162 49.02 4.58 85.02 14.242 106.11 27.368l-.53.849ZM939.936 149.582C494.405 313.151 151.278 135.586 13.77 59.366l.485-.874c137.444 76.185 480.231 253.563 925.337 90.151l.344.939Zm850.994-115.17c-20.92-12.99-56.81-22.615-105.9-27.162-49.08-4.545-111.3-4.012-184.85 3.271-147.11 14.565-339.51 56.123-562.711 137.998l-.344-.939C1160.39 65.68 1352.88 24.1 1500.08 9.526c73.6-7.287 135.88-7.824 185.04-3.272 49.14 4.551 85.21 14.193 106.34 27.308l-.53.85ZM937.469 148.519C490.79 312.372 146.965 134.989 9.181 58.841l.483-.876c137.721 76.114 481.207 253.312 927.461 89.615l.344.939ZM1790.61 33.122c-20.96-12.981-56.91-22.59-106.09-27.113-49.17-4.523-111.51-3.959-185.21 3.36-147.39 14.638-340.19 56.292-563.852 138.283l-.344-.939C1158.85 64.697 1351.72 23.021 1499.21 8.373c73.75-7.322 136.15-7.89 185.4-3.36 49.23 4.527 85.37 14.153 106.53 27.259l-.53.85Zm-855.152 114.53C487.844 311.737 143.45 134.502 5.44 58.412l.482-.875c137.947 76.054 482.003 253.105 929.192 89.176l.344.939ZM1790.37 32.125c-20.99-12.975-56.99-22.57-106.25-27.076-49.24-4.505-111.67-3.918-185.48 3.43-147.62 14.693-340.71 56.422-564.737 138.503l-.344-.939C1157.65 63.937 1350.83 22.186 1498.54 7.483c73.86-7.351 136.35-7.942 185.67-3.43 49.3 4.51 85.49 14.122 106.68 27.221l-.52.851ZM933.903 146.982c-448.336 164.264-793.171-12.857-931.356-88.9l.482-.877c138.121 76.009 482.617 252.947 930.53 88.838l.344.939Z" fill="#FD1640"/></svg>